<?xml version="1.0" encoding="utf-8"?>
<!-- Generator: Adobe Illustrator 22.1.0, SVG Export Plug-In . SVG Version: 6.00 Build 0)  -->
<svg version="1.1" id="Layer_1" xmlns="http://www.w3.org/2000/svg" xmlns:xlink="http://www.w3.org/1999/xlink" x="0px" y="0px"
	 viewBox="0 0 64 64" style="enable-background:new 0 0 64 64;" xml:space="preserve">
<style type="text/css">
	.st0{fill:#1A171B;}
</style>
<g>
	<path class="st0" d="M17.9,25.7c0.3,0.3,0.7,0.4,1.2,0.4c0.5,0,1.1-0.2,1.8-0.4c-0.1,0.3-0.2,0.5-0.2,0.8c0,0.5,0.2,1.2,1,1.9
		c0.3,0.2,0.6,0.3,1.1,0.3c1,0,2.3-0.6,4-1.3c1.5-0.7,3.3-1.4,5.4-2c0.1,0.1,0.2,0.3,0.3,0.4c1,1,2.5,1,2.5,1
		c6.9-0.1,8.1,0.6,9.4,1.4c1.5,0.9,3.1,1.8,10.8,2.1c0,0,0,0,0,0c0.4,0,0.7-0.3,0.7-0.7c0-0.4-0.3-0.7-0.7-0.8
		c-7.3-0.2-8.8-1.1-10.1-1.9c-1.5-0.9-2.9-1.7-10.2-1.6c0,0-0.9,0-1.4-0.5c-0.4-0.4-0.6-1.1-0.6-2c0-0.2,0.1-0.9,1.4-1.5
		c1.4-0.5,4.5-1,11.3-0.1c0.4,0.1,0.8-0.2,0.8-0.6c0.1-0.4-0.2-0.8-0.6-0.8c-5.6-0.7-9.6-0.7-11.9,0.2c-5.6,1.1-9.3,2.7-11.8,3.8
		c-1.5,0.7-3,1.3-3.3,1c-0.4-0.3-0.4-0.6-0.4-0.7c0-0.6,0.9-1.4,1.2-1.6c12.3-9.8,27.5-8.4,35.5-6.7c0.4,0.1,0.8-0.2,0.9-0.6
		c0.1-0.4-0.2-0.8-0.6-0.9c-8.2-1.8-23.9-3.2-36.6,6.9c-0.2,0.1-1.8,1.2-1.8,2.7C17,24.3,17.1,25,17.9,25.7z M26.2,26
		c-1.4,0.6-3.3,1.4-3.6,1.2c-0.4-0.3-0.4-0.5-0.4-0.7c0-0.6,0.9-1.4,1.2-1.6c0.2-0.2,0.4-0.3,0.6-0.4c1.9-0.8,4.5-1.8,7.8-2.6
		c-0.1,0.3-0.1,0.5-0.2,0.8c0,0.5,0,1,0.1,1.4C29.6,24.6,27.7,25.4,26.2,26z"/>
	<path class="st0" d="M55.3,49.7H8.7C8.3,49.7,8,50,8,50.4c0,0.4,0.3,0.7,0.7,0.7h46.5c0.4,0,0.7-0.3,0.7-0.7
		C56,50,55.7,49.7,55.3,49.7z"/>
	<path class="st0" d="M11,47.4h1.8h18.9h1.8c0.4,0,0.7-0.3,0.7-0.7c0-0.4-0.3-0.7-0.7-0.7h-1.1c-0.4-5-4.4-9.1-9.4-9.4V35h1.2
		c0.4,0,0.7-0.3,0.7-0.7c0-0.4-0.3-0.7-0.7-0.7h-3.9c-0.4,0-0.7,0.3-0.7,0.7c0,0.4,0.3,0.7,0.7,0.7h1.3v1.5c-5,0.4-9.1,4.4-9.4,9.4
		H11c-0.4,0-0.7,0.3-0.7,0.7C10.2,47,10.6,47.4,11,47.4z M22.2,37.9c4.6,0,8.3,3.5,8.7,8H13.5C13.9,41.4,17.7,37.9,22.2,37.9z"/>
</g>
</svg>
