<?xml version="1.0" encoding="iso-8859-1"?>
<!-- Generator: Adobe Illustrator 19.0.0, SVG Export Plug-In . SVG Version: 6.00 Build 0)  -->
<svg version="1.1" id="Capa_1" xmlns="http://www.w3.org/2000/svg" xmlns:xlink="http://www.w3.org/1999/xlink" x="0px" y="0px"
	 viewBox="0 0 512 512" style="enable-background:new 0 0 512 512;" xml:space="preserve">
<g>
	<g>
		<path d="M461.915,170.793c-1.021-3.063-3.887-5.128-7.115-5.128H349.984l94.428-137.352c2.347-3.413,1.482-8.083-1.931-10.43
			c-3.414-2.348-8.082-1.48-10.429,1.932l-100.271,145.85h-121.52c-4.142,0-7.5,3.357-7.5,7.5s3.358,7.5,7.5,7.5h111.207
			l-29.552,42.984H137.014l-57.313-42.984h27.161c0.013,0,0.026,0.001,0.038,0.001c0.013,0,0.026-0.001,0.038-0.001h73.355
			c4.142,0,7.5-3.357,7.5-7.5s-3.358-7.5-7.5-7.5H145.47c11.441-10.466,18.63-25.508,18.63-42.199
			c0-31.541-25.66-57.201-57.2-57.201c-0.199,0-0.395,0.013-0.593,0.015L97.758,6.438c-0.586-4.101-4.389-6.939-8.485-6.364
			c-4.101,0.586-6.95,4.385-6.364,8.485L91.457,68.4C67.398,75.157,49.7,97.276,49.7,123.466c0,16.691,7.189,31.733,18.63,42.199
			H57.201c-3.228,0-6.094,2.065-7.115,5.128c-1.021,3.063,0.033,6.436,2.615,8.372l195.8,146.849v124.539l-79.193,47.515
			c-2.891,1.734-4.269,5.185-3.369,8.434c0.9,3.249,3.857,5.498,7.228,5.498h165.668c3.371,0,6.328-2.249,7.228-5.498
			c0.9-3.249-0.479-6.698-3.369-8.434l-79.193-47.516V326.013l195.8-146.849C461.883,177.228,462.936,173.855,461.915,170.793z
			 M64.7,123.466c0-18.624,12.132-34.458,28.903-40.042l5.872,41.103c0.535,3.741,3.743,6.441,7.415,6.441
			c0.353,0,0.711-0.025,1.07-0.076c4.101-0.586,6.95-4.385,6.364-8.485l-5.872-41.101c22.551,0.821,40.647,19.413,40.647,42.162
			c0,23.257-18.91,42.178-42.162,42.199h-0.077C83.611,165.644,64.7,146.722,64.7,123.466z M311.757,496.999H200.244v0
			l55.757-33.454L311.757,496.999z M256,312.888l-98.987-74.239h124.592l-31.785,46.233c-2.347,3.413-1.482,8.083,1.931,10.43
			c1.298,0.893,2.778,1.32,4.242,1.32c2.387,0,4.733-1.137,6.187-3.252l37.628-54.731h55.179L256,312.888z M374.987,223.649h-64.866
			l29.552-42.984h92.628L374.987,223.649z"/>
	</g>
</g>
<g>
</g>
<g>
</g>
<g>
</g>
<g>
</g>
<g>
</g>
<g>
</g>
<g>
</g>
<g>
</g>
<g>
</g>
<g>
</g>
<g>
</g>
<g>
</g>
<g>
</g>
<g>
</g>
<g>
</g>
</svg>
