<?xml version="1.0" encoding="utf-8"?>
<!-- Generator: Adobe Illustrator 23.0.3, SVG Export Plug-In . SVG Version: 6.00 Build 0)  -->
<svg version="1.1" id="Layer_1" xmlns="http://www.w3.org/2000/svg" xmlns:xlink="http://www.w3.org/1999/xlink" x="0px" y="0px"
	 width="64px" height="64px" viewBox="0 0 64 64" style="enable-background:new 0 0 64 64;" xml:space="preserve">
<style type="text/css">
	.st0{fill:#1B171B;}
</style>
<g>
	<path class="st0" d="M-68.6,46.7c-0.4,0-0.7,0.3-0.7,0.7c0,0.4,0.3,0.7,0.7,0.7c0.4,0,0.7-0.3,0.7-0.7
		C-67.9,47-68.2,46.7-68.6,46.7z"/>
	<path class="st0" d="M-37.5,47.4c0,0.4,0.3,0.7,0.7,0.7c0.4,0,0.7-0.3,0.7-0.7c0-0.4-0.3-0.7-0.7-0.7C-37.2,46.7-37.5,47-37.5,47.4
		z"/>
	<path class="st0" d="M-26.4,11.6c-5.9,0-10.7,4.6-11.1,10.4h-1.7l-1-7.1h2.1c0.3,0,0.6-0.2,0.7-0.6l1.6-6.5c0.1-0.2,0-0.4-0.1-0.6
		c-0.1-0.2-0.3-0.3-0.6-0.3H-42h-2.8V5.3c0-0.4-0.3-0.7-0.7-0.7c-0.4,0-0.7,0.3-0.7,0.7v1.6H-50c-0.2,0-0.5,0.1-0.6,0.3
		c-0.1,0.2-0.2,0.5-0.1,0.7l1.7,4.3l-0.4,2.5c-2.1-2.4-5.1-4-8.6-4.2V8.8c0-0.4-0.3-0.7-0.7-0.7c-0.4,0-0.7,0.3-0.7,0.7v1.7
		c-6.2,0.4-11.2,5.3-11.6,11.6h-2.1c-0.4,0-0.7,0.3-0.7,0.7v12.7c0,0.2,0.1,0.4,0.2,0.5c1.1,1.1,2.6,1.7,4.1,1.7v4.7
		c-2.4,0.4-4.3,2.5-4.3,5c0,2.8,2.3,5.1,5.1,5.1c2.5,0,4.7-1.9,5-4.3h21.8c0.4,2.4,2.5,4.3,5,4.3c2.8,0,5.1-2.3,5.1-5.1
		c0-2.5-1.9-4.7-4.3-5v-6.9v-1V22.8c0,0,0,0,0,0c0-5.3,4.3-9.7,9.7-9.7c0.4,0,0.7-0.3,0.7-0.7C-25.7,12-26,11.6-26.4,11.6z
		 M-41.8,46.7h-21.8c-0.3-2.2-2.1-4-4.3-4.3v-4.9c0.8-0.2,1.5-0.5,2.2-1.1c1,0.8,2.3,1.3,3.6,1.3c1.3,0,2.6-0.4,3.6-1.3
		c2.1,1.7,5.1,1.7,7.2,0c1,0.8,2.3,1.3,3.6,1.3c1.3,0,2.6-0.4,3.6-1.3c1.9,1.5,4.5,1.6,6.5,0.5v5.4C-39.7,42.7-41.5,44.4-41.8,46.7z
		 M-38.7,13.4h-1.7l-0.7-5.1h3.7L-38.7,13.4z M-42.6,8.4l0.9,5.9c0,0,0,0,0,0l1.1,7.8h-8.2l1.4-9.9c0-0.1,0-0.3,0-0.4l-1.4-3.5
		H-42.6z M-58.5,11.9c3.7,0,7,1.9,9,4.8l-0.8,5.4h-19.1C-69,16.4-64.3,11.9-58.5,11.9z M-72.2,23.5h2.1h20.5h0.1h9.7h2.3v11v0.7
		c-1.7,1.5-4.3,1.4-6-0.2c-0.3-0.3-0.8-0.3-1,0c-0.8,0.8-1.9,1.3-3.1,1.3c-1.2,0-2.3-0.5-3.1-1.3c-0.1-0.1-0.3-0.2-0.5-0.2
		s-0.4,0.1-0.5,0.2c-1.7,1.7-4.5,1.7-6.2,0c-0.3-0.3-0.8-0.3-1,0c-0.8,0.8-1.9,1.3-3.1,1.3c-1.2,0-2.3-0.5-3.1-1.3
		c-0.1-0.1-0.3-0.2-0.5-0.2c-0.2,0-0.4,0.1-0.5,0.2c-1.6,1.6-4.3,1.7-6,0.2V23.5z M-68.6,51c-2,0-3.6-1.6-3.6-3.6
		c0-2,1.6-3.6,3.6-3.6c2,0,3.6,1.6,3.6,3.6C-65,49.4-66.6,51-68.6,51z M-33.2,47.4c0,2-1.6,3.6-3.6,3.6c-2,0-3.6-1.6-3.6-3.6
		c0-2,1.6-3.6,3.6-3.6C-34.8,43.8-33.2,45.4-33.2,47.4z"/>
</g>
<path class="st0" d="M-84.1,40h-0.3l-6.5-18.2c1.5-0.1,2.8-1.3,2.8-2.9v-7.5c0-1.6-1.3-2.9-2.9-2.9h-2.5c-0.4,0-0.7,0.3-0.7,0.7
	c0,1.2-1,2.2-2.2,2.2h-17.5c-1.2,0-2.2-1-2.2-2.2c0-0.4-0.3-0.7-0.7-0.7h-2.5c-1.6,0-2.9,1.3-2.9,2.9v7.5c0,1.6,1.2,2.8,2.8,2.9
	L-126,40h-0.3c-1.6,0-2.9,1.3-2.9,2.9v6.5c0,1.6,1.3,2.9,2.9,2.9h0V55c0,0.4,0.3,0.7,0.7,0.7c0.4,0,0.7-0.3,0.7-0.7v-2.6h39.3V55
	c0,0.4,0.3,0.7,0.7,0.7c0.4,0,0.7-0.3,0.7-0.7v-2.6h0c1.6,0,2.9-1.3,2.9-2.9v-6.5C-81.2,41.3-82.5,40-84.1,40z M-120.8,18.9v-7.5
	c0-0.8,0.7-1.5,1.5-1.5h1.9c0.3,1.7,1.8,2.9,3.6,2.9h17.5c1.8,0,3.2-1.3,3.6-2.9h1.9c0.8,0,1.5,0.7,1.5,1.5v7.5
	c0,0.8-0.7,1.5-1.5,1.5h-0.4l-0.4-1.2c-0.1-0.3-0.4-0.5-0.7-0.5h-2.4c-0.7-2-2.9-3.4-5.3-3.4c-2.1,0-3.9,1-4.9,2.5
	c-1-1.5-2.8-2.5-4.9-2.5c-2.5,0-4.6,1.4-5.3,3.4h-2.4c-0.3,0-0.6,0.2-0.7,0.5l-0.4,1.2h-0.4C-120.2,20.3-120.8,19.7-120.8,18.9z
	 M-96.1,20.3c0,0.6-0.2,0.9-0.3,0.9c-0.5,0.5-1.9,0.5-3.3,0.5l-0.6,0l-0.6,0c-1.5,0-2.8,0-3.3-0.5c-0.1-0.1-0.3-0.3-0.3-0.9
	c0-1.9,1.9-3.5,4.2-3.5C-98,16.8-96.1,18.3-96.1,20.3z M-105.9,20.3c0,0.6-0.2,0.9-0.3,0.9c-0.5,0.5-1.9,0.5-3.3,0.5l-0.6,0l-0.6,0
	c-1.5,0-2.8,0-3.3-0.5c-0.1-0.1-0.3-0.3-0.3-0.9c0-1.9,1.9-3.5,4.2-3.5C-107.8,16.8-105.9,18.3-105.9,20.3z M-117.4,20.1h1.6
	c0,0,0,0.1,0,0.1c0,0.8,0.2,1.5,0.7,2c0.9,0.9,2.5,0.9,4.4,0.9l0.6,0l0.6,0c0.2,0,0.4,0,0.5,0c1.6,0,3-0.1,3.8-0.9
	c0.9,0.9,2.5,0.9,4.3,0.9l0.6,0l0.6,0c0.2,0,0.4,0,0.5,0c1.6,0,3-0.1,3.8-0.9c0.5-0.5,0.7-1.1,0.7-2c0,0,0-0.1,0-0.1h1.6l2.4,6.7
	h-29.1L-117.4,20.1z M-120.3,28.3h30.2l4.2,11.7h-1.8c-0.4,0-0.7,0.3-0.7,0.7v0.7c0,1.2-1,2.2-2.2,2.2h-29.1c-1.2,0-2.2-1-2.2-2.2
	v-0.7c0-0.4-0.3-0.7-0.7-0.7h-1.8L-120.3,28.3z M-82.6,49.5c0,0.8-0.7,1.5-1.5,1.5h-42.2c-0.8,0-1.5-0.7-1.5-1.5v-6.5
	c0-0.8,0.7-1.5,1.5-1.5h2.9c0,2,1.6,3.6,3.6,3.6h29.1c2,0,3.6-1.6,3.6-3.6h2.9c0.8,0,1.5,0.7,1.5,1.5V49.5z"/>
<g>
	<path class="st0" d="M-79.2,66.9h-46.5c-0.4,0-0.7,0.3-0.7,0.7v27.6v4.4c0,0.4,0.3,0.7,0.7,0.7h7.3v3.6h-3.6
		c-0.4,0-0.7,0.3-0.7,0.7c0,0.4,0.3,0.7,0.7,0.7h4.4h30.5h4.4c0.4,0,0.7-0.3,0.7-0.7c0-0.4-0.3-0.7-0.7-0.7h-3.6v-3.6h7.3
		c0.4,0,0.7-0.3,0.7-0.7v-4.4V67.7C-78.4,67.3-78.8,66.9-79.2,66.9z M-87.9,104H-117v-3.6h29.1V104z M-87.2,98.9h-30.5h-7.3V96h18.9
		c0.4,0,0.7-0.3,0.7-0.7c0-0.4-0.3-0.7-0.7-0.7H-125V68.4h45.1v26.2h-18.9c-0.4,0-0.7,0.3-0.7,0.7c0,0.4,0.3,0.7,0.7,0.7h18.9v2.9
		H-87.2z"/>
	<path class="st0" d="M-102.4,94.6c-0.4,0-0.7,0.3-0.7,0.7c0,0.4,0.3,0.7,0.7,0.7c0.4,0,0.7-0.3,0.7-0.7
		C-101.7,94.9-102,94.6-102.4,94.6z"/>
	<path class="st0" d="M-87.3,72.2c-0.3-0.3-0.7-0.3-1,0l-17.5,17.5c-0.3,0.3-0.3,0.7,0,1c0.1,0.1,0.3,0.2,0.5,0.2
		c0.2,0,0.4-0.1,0.5-0.2l17.5-17.5C-87.1,73-87.1,72.5-87.3,72.2z"/>
	<path class="st0" d="M-100.4,75.1c-0.3-0.3-0.7-0.3-1,0L-116,89.7c-0.3,0.3-0.3,0.7,0,1c0.1,0.1,0.3,0.2,0.5,0.2
		c0.2,0,0.4-0.1,0.5-0.2l14.5-14.5C-100.1,75.9-100.1,75.4-100.4,75.1z"/>
</g>
<g>
	<path class="st0" d="M36.9,84.5c-0.3-0.3-0.7-0.3-1,0c-0.3,0.3-0.3,0.7,0,1c3.7,3.8,5.9,8.8,6.3,14c0,0.4,0.3,0.7,0.7,0.7
		c0,0,0,0,0.1,0c0.4,0,0.7-0.4,0.7-0.8C43.2,93.8,40.8,88.5,36.9,84.5z"/>
	<path class="st0" d="M42.4,106.4c-0.4-0.1-0.8,0.1-0.9,0.5c-2.6,9.9-11.6,16.9-21.8,16.9c-10.3,0-19.2-6.9-21.8-16.9
		c-0.1-0.4-0.5-0.6-0.9-0.5c-0.4,0.1-0.6,0.5-0.5,0.9c2.7,10.6,12.3,17.9,23.2,17.9c10.9,0,20.5-7.4,23.2-17.9
		C43,106.9,42.8,106.5,42.4,106.4z"/>
	<path class="st0" d="M-3.5,100.2c0.4,0,0.7-0.3,0.7-0.7C-2,88.4,6.7,79.7,17.8,78.7c0.4,0,0.7-0.4,0.7-0.8c0-0.4-0.4-0.7-0.8-0.7
		c-11.8,1-21,10.3-21.9,22.1C-4.3,99.8-4,100.1-3.5,100.2C-3.6,100.2-3.5,100.2-3.5,100.2z"/>
	<path class="st0" d="M21.9,99.3c0.4,0,0.7-0.3,0.7-0.7v-1.5h9.3v1.5c0,0.4,0.3,0.7,0.7,0.7c0.4,0,0.7-0.3,0.7-0.7V77.9
		c0-0.4-0.3-0.7-0.7-0.7c-0.4,0-0.7,0.3-0.7,0.7v1.5h-9.3v-1.5c0-0.4-0.3-0.7-0.7-0.7c-0.4,0-0.7,0.3-0.7,0.7v20.7
		C21.1,99,21.5,99.3,21.9,99.3z M31.9,90.2h-9.3v-3.9h9.3V90.2z M22.6,95.6v-3.9h9.3v3.9H22.6z M31.9,80.9v3.9h-9.3v-3.9H31.9z"/>
	<path class="st0" d="M41.7,102.3c-0.7,0.7-1.7,1.1-2.7,1.1s-2-0.4-2.7-1.1c-1-1-2.3-1.5-3.7-1.5c-1.4,0-2.7,0.5-3.7,1.5
		c-1.5,1.5-3.9,1.5-5.4,0c-1-1-2.3-1.5-3.7-1.5c-1.4,0-2.7,0.5-3.7,1.5c-1.5,1.5-3.9,1.5-5.4,0c-2.1-2.1-5.4-2.1-7.5,0
		c-0.7,0.7-1.7,1.1-2.7,1.1c-1,0-2-0.4-2.7-1.1c-0.3-0.3-0.7-0.3-1,0c-0.3,0.3-0.3,0.7,0,1c2.1,2.1,5.4,2.1,7.5,0
		c1.5-1.5,3.9-1.5,5.4,0c2.1,2.1,5.4,2.1,7.5,0c0.7-0.7,1.7-1.1,2.7-1.1c1,0,2,0.4,2.7,1.1c2.1,2.1,5.4,2.1,7.5,0
		c0.7-0.7,1.7-1.1,2.7-1.1c1,0,2,0.4,2.7,1.1c1,1,2.3,1.5,3.7,1.5c1.4,0,2.7-0.5,3.7-1.5c0.3-0.3,0.3-0.7,0-1
		C42.5,102,42,102,41.7,102.3z"/>
	<path class="st0" d="M37.2,109.9c0.3,0.3,0.7,0.3,1,0c0.3-0.3,0.3-0.7,0-1c-1-1-2.4-1.6-3.8-1.6c-1.4,0-2.8,0.6-3.8,1.6
		c-0.8,0.8-1.7,1.2-2.8,1.2c-1.1,0-2.1-0.4-2.8-1.2c-2.1-2.1-5.6-2.1-7.7,0c-0.8,0.8-1.7,1.2-2.8,1.2c-1.1,0-2.1-0.4-2.8-1.2
		c-2.1-2.1-5.6-2.1-7.7,0c-0.5,0.5-1.2,0.9-1.9,1.1c-0.4,0.1-0.6,0.5-0.5,0.9c0.1,0.4,0.5,0.6,0.9,0.5c1-0.2,1.9-0.7,2.6-1.5
		c1.5-1.5,4.1-1.6,5.6,0c1,1,2.4,1.6,3.8,1.6c1.4,0,2.8-0.6,3.8-1.6c1.5-1.5,4.1-1.5,5.6,0c1,1,2.4,1.6,3.8,1.6s2.8-0.6,3.8-1.6
		C33.2,108.4,35.7,108.4,37.2,109.9z"/>
	<path class="st0" d="M27,115.4c-0.8,0.8-1.7,1.2-2.8,1.2c-1.1,0-2.1-0.4-2.8-1.2c-2.1-2.1-5.6-2.1-7.7,0c-0.8,0.8-1.7,1.2-2.8,1.2
		c-1.1,0-2.1-0.4-2.8-1.2c-0.7-0.7-1.7-1.3-2.7-1.5c-0.4-0.1-0.8,0.2-0.9,0.6c-0.1,0.4,0.2,0.8,0.6,0.9c0.8,0.2,1.4,0.5,2,1.1
		c1,1,2.4,1.6,3.8,1.6c1.4,0,2.8-0.6,3.8-1.6c1.5-1.5,4.1-1.5,5.6,0c1,1,2.4,1.6,3.8,1.6c1.4,0,2.8-0.6,3.8-1.6
		c1.4-1.4,3.5-1.6,5.1-0.5c0.3,0.2,0.8,0.1,1-0.2c0.2-0.3,0.1-0.8-0.2-1C31.7,113.3,28.8,113.6,27,115.4z"/>
</g>
<g>
	<path class="st0" d="M105.6,105.2h-0.3c-0.4-4.8-4.4-8.6-9.3-8.6H69.9c-1.2,0-2.3,0.8-2.6,2h-2.1c-3,0-5.5-2.4-5.5-5.5
		c0-3,2.4-5.5,5.5-5.5h34.6c3,0,5.5-2.5,5.5-5.5c0-3-2.5-5.5-5.5-5.5h-22c-0.4,0-0.7,0.3-0.7,0.7c0,0.4,0.3,0.7,0.7,0.7h22
		c2.2,0,4.1,1.8,4.1,4.1c0,2.2-1.8,4.1-4.1,4.1H65.3c-3.8,0-6.9,3.1-6.9,6.9c0,3.8,3.1,6.9,6.9,6.9h2.1c0.3,1.1,1.2,1.9,2.3,2
		l17.4,1.9c-0.1,0.4-0.2,0.9-0.2,1.3h-0.3c-0.4,0-0.7,0.3-0.7,0.7c0,0.4,0.3,0.7,0.7,0.7h1h17.2h1c0.4,0,0.7-0.3,0.7-0.7
		C106.4,105.6,106,105.2,105.6,105.2z M88.3,105.2c0.2-1.7,0.9-3.4,2.1-4.6c0.3-0.3,0.3-0.8,0-1c-0.3-0.3-0.8-0.3-1,0
		c-0.8,0.9-1.4,1.8-1.9,2.9l-17.6-1.9c-0.6-0.1-1.1-0.6-1.1-1.3c0-0.7,0.6-1.3,1.3-1.3h26.1c4.1,0,7.5,3.1,7.8,7.1H88.3z"/>
	<path class="st0" d="M96.1,108.8c-0.4,0-0.7,0.3-0.7,0.7s0.3,0.7,0.7,0.7c0.4,0,0.7-0.3,0.7-0.7S96.5,108.8,96.1,108.8z"/>
	<path class="st0" d="M96.1,116c-0.4,0-0.7,0.3-0.7,0.7c0,0.4,0.3,0.7,0.7,0.7c0.4,0,0.7-0.3,0.7-0.7C96.8,116.3,96.5,116,96.1,116z
		"/>
	<path class="st0" d="M96.1,119.6c-0.4,0-0.7,0.3-0.7,0.7c0,0.4,0.3,0.7,0.7,0.7c0.4,0,0.7-0.3,0.7-0.7
		C96.8,119.9,96.5,119.6,96.1,119.6z"/>
	<path class="st0" d="M96.1,112.4c-0.4,0-0.7,0.3-0.7,0.7c0,0.4,0.3,0.7,0.7,0.7c0.4,0,0.7-0.3,0.7-0.7
		C96.8,112.7,96.5,112.4,96.1,112.4z"/>
	<path class="st0" d="M95.6,123.4c-0.1,0.1-0.2,0.3-0.2,0.5c0,0.2,0.1,0.4,0.2,0.5c0.1,0.1,0.3,0.2,0.5,0.2c0.2,0,0.4-0.1,0.5-0.2
		c0.1-0.1,0.2-0.3,0.2-0.5c0-0.2-0.1-0.4-0.2-0.5C96.3,123.1,95.8,123.1,95.6,123.4z"/>
	<path class="st0" d="M90.2,115.1c-0.4,0-0.8,0.3-0.8,0.7c0,0.4,0.3,0.8,0.7,0.8c0,0,0,0,0.1,0c0.4,0,0.7-0.3,0.7-0.7
		C90.9,115.5,90.6,115.1,90.2,115.1z"/>
	<path class="st0" d="M90.5,111.8c-0.4,0-0.8,0.3-0.8,0.7c0,0.4,0.3,0.8,0.7,0.8c0,0,0,0,0.1,0c0.4,0,0.7-0.3,0.7-0.7
		C91.2,112.2,90.9,111.9,90.5,111.8z"/>
	<path class="st0" d="M90.8,108.5c-0.4,0-0.8,0.3-0.8,0.7c0,0.4,0.3,0.7,0.7,0.8c0,0,0,0,0.1,0c0.4,0,0.7-0.3,0.7-0.7
		C91.5,108.9,91.2,108.6,90.8,108.5z"/>
	<path class="st0" d="M89.9,118.4c-0.4,0-0.8,0.3-0.8,0.7c0,0.4,0.3,0.8,0.7,0.8c0,0,0,0,0.1,0c0.4,0,0.7-0.3,0.7-0.7
		C90.6,118.8,90.3,118.4,89.9,118.4z"/>
	<path class="st0" d="M89,121.9c-0.1,0.1-0.2,0.3-0.2,0.5c0,0.2,0.1,0.4,0.2,0.5c0.1,0.1,0.3,0.2,0.5,0.2c0.2,0,0.4-0.1,0.5-0.2
		c0.1-0.1,0.2-0.3,0.2-0.5c0-0.2-0.1-0.4-0.2-0.5C89.8,121.6,89.3,121.6,89,121.9z"/>
	<path class="st0" d="M102.4,119.9c0.4,0,0.7-0.4,0.7-0.8c0-0.4-0.4-0.7-0.8-0.7c-0.4,0-0.7,0.4-0.7,0.8
		C101.7,119.6,102,119.9,102.4,119.9C102.4,119.9,102.4,119.9,102.4,119.9z"/>
	<path class="st0" d="M102.1,116.6c0.4,0,0.7-0.4,0.7-0.8c0-0.4-0.4-0.7-0.8-0.7c-0.4,0-0.7,0.4-0.7,0.8
		C101.4,116.3,101.7,116.6,102.1,116.6C102.1,116.6,102.1,116.6,102.1,116.6z"/>
	<path class="st0" d="M101.8,113.3c0.4,0,0.7-0.4,0.7-0.8c0-0.4-0.4-0.7-0.8-0.7c-0.4,0-0.7,0.4-0.7,0.8
		C101.1,113,101.4,113.3,101.8,113.3C101.8,113.3,101.8,113.3,101.8,113.3z"/>
	<path class="st0" d="M101.5,110c0.4,0,0.7-0.4,0.7-0.8c0-0.4-0.4-0.7-0.8-0.7c-0.4,0-0.7,0.4-0.7,0.8
		C100.8,109.7,101.1,110,101.5,110C101.5,110,101.5,110,101.5,110z"/>
	<path class="st0" d="M102.1,121.9c-0.1,0.1-0.2,0.3-0.2,0.5c0,0.2,0.1,0.4,0.2,0.5c0.1,0.1,0.3,0.2,0.5,0.2c0.2,0,0.4-0.1,0.5-0.2
		c0.1-0.1,0.2-0.3,0.2-0.5c0-0.2-0.1-0.4-0.2-0.5C102.9,121.6,102.4,121.6,102.1,121.9z"/>
</g>
<g>
	<path class="st0" d="M24.3,32.5c0.2,0,0.4-0.1,0.5-0.2c0.3-0.3,0.3-0.7,0-1c-2.9-2.9-4.6-6.8-4.6-11c0-4.2,1.6-8.1,4.6-11
		c0.3-0.3,0.3-0.7,0-1c-0.3-0.3-0.7-0.3-1,0c-3.2,3.2-5,7.5-5,12c0,4.5,1.8,8.8,5,12C23.9,32.4,24.1,32.5,24.3,32.5z"/>
	<path class="st0" d="M46.8,32.3c0.1,0.1,0.3,0.2,0.5,0.2c0.2,0,0.4-0.1,0.5-0.2c6.6-6.6,6.6-17.4,0-24c-0.3-0.3-0.7-0.3-1,0
		c-0.3,0.3-0.3,0.7,0,1c6.1,6.1,6.1,15.9,0,22C46.5,31.5,46.5,32,46.8,32.3z"/>
	<path class="st0" d="M29.3,27.5c0.2,0,0.4-0.1,0.5-0.2c0.3-0.3,0.3-0.7,0-1c-3.3-3.3-3.3-8.7,0-12c0.3-0.3,0.3-0.7,0-1
		c-0.3-0.3-0.7-0.3-1,0c-3.9,3.9-3.9,10.2,0,14C28.9,27.4,29.1,27.5,29.3,27.5z"/>
	<path class="st0" d="M41.8,27.3c0.1,0.1,0.3,0.2,0.5,0.2c0.2,0,0.4-0.1,0.5-0.2c3.9-3.9,3.9-10.2,0-14c-0.3-0.3-0.7-0.3-1,0
		c-0.3,0.3-0.3,0.7,0,1c3.3,3.3,3.3,8.7,0,12C41.5,26.5,41.5,27,41.8,27.3z"/>
	<path class="st0" d="M35.1,23v10.6c0,0.4,0.3,0.7,0.7,0.7c0.4,0,0.7-0.3,0.7-0.7V23c1.3-0.3,2.2-1.5,2.2-2.8c0-1.6-1.3-2.9-2.9-2.9
		s-2.9,1.3-2.9,2.9C32.9,21.6,33.8,22.7,35.1,23z M35.8,18.8c0.8,0,1.5,0.7,1.5,1.5c0,0.8-0.7,1.5-1.5,1.5c-0.8,0-1.5-0.7-1.5-1.5
		C34.4,19.4,35,18.8,35.8,18.8z"/>
	<path class="st0" d="M51.1,35.8H20.5c-0.4,0-0.7,0.3-0.7,0.7v0.9c-0.5-0.5-1.1-1-1.8-1.3c-1.3-0.6-2.8-0.5-4.1,0.1
		c-1.2,0.6-2.1,1.7-2.5,3.1c-0.4,1.5-0.1,3.1,0.7,4.3c1,1.5,2.6,1.9,4.4,2.4c1.8,0.5,3.6,1,5.1,2.8c2.4,3.2,7.3,4.9,14.2,4.9
		c10.2,0,16-3.8,16-10.4v-6.9C51.8,36.1,51.5,35.8,51.1,35.8z M16.9,44.7c-1.5-0.4-2.8-0.8-3.6-1.8c-0.6-0.9-0.8-2.1-0.5-3.1
		c0.3-1,0.9-1.8,1.7-2.2c1-0.5,2-0.5,2.9-0.1c1.1,0.5,1.9,1.5,2.4,2.7v3.2c0,0.9,0.1,1.7,0.3,2.5C19,45.3,17.9,45,16.9,44.7z
		 M35.8,52.4c-4.4,0-14.5-0.9-14.5-9v-6.2h29.1v4.1H25c-0.4,0-0.7,0.3-0.7,0.7c0,0.4,0.3,0.7,0.7,0.7h25.3v0.7
		C50.4,51.5,40.2,52.4,35.8,52.4z"/>
	<path class="st0" d="M51.1,54.5H20.5c-0.4,0-0.7,0.3-0.7,0.7c0,0.4,0.3,0.7,0.7,0.7h30.5c0.4,0,0.7-0.3,0.7-0.7
		C51.8,54.9,51.5,54.5,51.1,54.5z"/>
</g>
<g>
	<path class="st0" d="M96.8-96.2H54.6c-1.6,0-2.9,1.3-2.9,2.9v22.5c0,1.6,1.3,2.9,2.9,2.9h2.2h37.8h2.2c1.6,0,2.9-1.3,2.9-2.9v-22.5
		C99.7-94.9,98.4-96.2,96.8-96.2z M57.7-69.3l1.2-4.4h33.6l1.2,4.4H57.7z M98.2-70.7c0,0.8-0.7,1.5-1.5,1.5h-1.6l-1.4-5.3
		c-0.1-0.3-0.4-0.5-0.7-0.5H58.4c-0.3,0-0.6,0.2-0.7,0.5l-1.4,5.3h-1.6c-0.8,0-1.5-0.7-1.5-1.5v-22.5c0-0.8,0.7-1.5,1.5-1.5h42.2
		c0.8,0,1.5,0.7,1.5,1.5V-70.7z"/>
	<path class="st0" d="M68.2-60.8c0.3-0.3,0.3-0.8,0-1c-0.3-0.3-0.7-0.3-1,0c-1.5,1.6-1.5,4.2,0,5.7c1,1,1,2.7,0,3.7
		c-0.3,0.3-0.3,0.8,0,1c0.1,0.1,0.3,0.2,0.5,0.2c0.2,0,0.4-0.1,0.5-0.2c1.5-1.6,1.5-4.2,0-5.7C67.2-58.1,67.2-59.7,68.2-60.8z"/>
	<path class="st0" d="M76.2-60.8c0.3-0.3,0.3-0.8,0-1c-0.3-0.3-0.8-0.3-1,0c-1.5,1.6-1.5,4.2,0,5.7c1,1,1,2.7,0,3.7
		c-0.3,0.3-0.3,0.8,0,1c0.1,0.1,0.3,0.2,0.5,0.2c0.2,0,0.4-0.1,0.5-0.2c1.5-1.6,1.5-4.2,0-5.7C75.2-58.1,75.2-59.7,76.2-60.8z"/>
	<path class="st0" d="M60.2-60.8c0.3-0.3,0.3-0.8,0-1c-0.3-0.3-0.7-0.3-1,0c-1.5,1.6-1.5,4.2,0,5.7c1,1,1,2.7,0,3.7
		c-0.3,0.3-0.3,0.8,0,1c0.1,0.1,0.3,0.2,0.5,0.2c0.2,0,0.4-0.1,0.5-0.2c1.5-1.6,1.5-4.2,0-5.7C59.2-58.1,59.2-59.7,60.2-60.8z"/>
	<path class="st0" d="M84.2-60.8c0.3-0.3,0.3-0.8,0-1c-0.3-0.3-0.8-0.3-1,0c-1.5,1.6-1.5,4.2,0,5.7c1,1,1,2.7,0,3.7
		c-0.3,0.3-0.3,0.8,0,1c0.1,0.1,0.3,0.2,0.5,0.2c0.2,0,0.4-0.1,0.5-0.2c1.5-1.6,1.5-4.2,0-5.7C83.2-58.1,83.2-59.7,84.2-60.8z"/>
	<path class="st0" d="M92.2-60.8c0.3-0.3,0.3-0.8,0-1c-0.3-0.3-0.8-0.3-1,0c-1.5,1.6-1.5,4.2,0,5.7c1,1,1,2.7,0,3.7
		c-0.3,0.3-0.3,0.8,0,1c0.1,0.1,0.3,0.2,0.5,0.2c0.2,0,0.4-0.1,0.5-0.2c1.5-1.6,1.5-4.2,0-5.7C91.2-58.1,91.2-59.7,92.2-60.8z"/>
	<path class="st0" d="M94.6-80.2h-1.5c-0.4,0-0.7,0.3-0.7,0.7c0,0.4,0.3,0.7,0.7,0.7h1.5c0.4,0,0.7-0.3,0.7-0.7
		C95.3-79.8,95-80.2,94.6-80.2z"/>
	<path class="st0" d="M94.6-85.3h-1.5c-0.4,0-0.7,0.3-0.7,0.7c0,0.4,0.3,0.7,0.7,0.7h1.5c0.4,0,0.7-0.3,0.7-0.7
		C95.3-84.9,95-85.3,94.6-85.3z"/>
	<path class="st0" d="M94.6-90.4h-1.5c-0.4,0-0.7,0.3-0.7,0.7c0,0.4,0.3,0.7,0.7,0.7h1.5c0.4,0,0.7-0.3,0.7-0.7
		C95.3-90,95-90.4,94.6-90.4z"/>
	<path class="st0" d="M89.5-80.2H56.8c-0.4,0-0.7,0.3-0.7,0.7c0,0.4,0.3,0.7,0.7,0.7h32.7c0.4,0,0.7-0.3,0.7-0.7
		C90.2-79.8,89.9-80.2,89.5-80.2z"/>
	<path class="st0" d="M89.5-85.3H56.8c-0.4,0-0.7,0.3-0.7,0.7c0,0.4,0.3,0.7,0.7,0.7h32.7c0.4,0,0.7-0.3,0.7-0.7
		C90.2-84.9,89.9-85.3,89.5-85.3z"/>
	<path class="st0" d="M89.5-90.4H56.8c-0.4,0-0.7,0.3-0.7,0.7c0,0.4,0.3,0.7,0.7,0.7h32.7c0.4,0,0.7-0.3,0.7-0.7
		C90.2-90,89.9-90.4,89.5-90.4z"/>
</g>
<g>
	<path class="st0" d="M143.7-32.6h-2.3c-0.4,0-0.7,0.3-0.7,0.7c0,0.4,0.3,0.7,0.7,0.7h2.3c0.4,0,0.7-0.3,0.7-0.7
		C144.4-32.3,144.1-32.6,143.7-32.6z"/>
	<path class="st0" d="M131.3-32.6H129c-0.4,0-0.7,0.3-0.7,0.7c0,0.4,0.3,0.7,0.7,0.7h2.3c0.4,0,0.7-0.3,0.7-0.7
		C132.1-32.3,131.7-32.6,131.3-32.6z"/>
	<path class="st0" d="M156.9-36.4l-0.8,0c-0.8,0-1.5-0.3-2.1-0.8l-6.4-6.1c-1-0.9-2.3-1.4-3.6-1.4h-27.5c-1.8,0-3.3,1.5-3.3,3.3v9.6
		v3.6v1.6c0,1.6,1.3,2.9,2.9,2.9h1.4c0.4,0,0.7-0.3,0.7-0.7c0-0.4-0.3-0.7-0.7-0.7h-1.4c-0.8,0-1.5-0.7-1.5-1.5v-0.9h0.7
		c1.3,0,2.4-1.1,2.4-2.4v-2c0-0.4-0.3-0.7-0.7-0.7h-2.3V-35h9.5c0.2,0,0.4-0.1,0.6-0.3c0.1-0.2,0.2-0.4,0.2-0.6l-1.3-7.5h2.2
		l1.4,7.8c0.1,0.3,0.4,0.6,0.7,0.6h8.7c0.2,0,0.4-0.1,0.6-0.3c0.1-0.2,0.2-0.4,0.2-0.6l-1.3-7.5h2.5l1.3,7.8
		c0.1,0.3,0.4,0.6,0.7,0.6h10c0.4,0,0.7-0.3,0.7-0.7c0-0.4-0.3-0.7-0.7-0.7h-9.4l-1.2-6.9h4.2c1,0,1.9,0.4,2.6,1l6.4,6.1
		c0.8,0.8,1.9,1.2,3.1,1.2l0.8,0c1.4,0,2.6,1,2.8,2.3h-3c-0.4,0-0.7,0.3-0.7,0.7v1.8c0,1.4,1.1,2.5,2.5,2.5h1.2v0.9
		c0,0.8-0.7,1.5-1.5,1.5H157c-0.4,0-0.7,0.3-0.7,0.7c0,0.4,0.3,0.7,0.7,0.7h1.4c1.6,0,2.9-1.3,2.9-2.9l0-5.5
		C161.2-34.5,159.3-36.4,156.9-36.4z M116.3-31.2v1.3c0,0.5-0.4,0.9-0.9,0.9h-0.7v-2.2H116.3z M114.7-36.4v-5c0-1,0.8-1.9,1.9-1.9
		h5.5l1.2,6.9H114.7z M128.4-36.4l-1.2-6.9h7.3l1.2,6.9H128.4z M159.8-29h-1.2c-0.6,0-1.1-0.5-1.1-1.1v-1.1h2.3V-29z"/>
	<path class="st0" d="M131.5-24.5c0,0.4,0.3,0.7,0.7,0.7h9.9c0.4,0,0.7-0.3,0.7-0.7c0-0.4-0.3-0.7-0.7-0.7h-9.9
		C131.9-25.2,131.5-24.9,131.5-24.5z"/>
	<path class="st0" d="M119.7-24.5c0,2.9,2.3,5.2,5.2,5.2c2.9,0,5.2-2.3,5.2-5.2c0-2.9-2.3-5.2-5.2-5.2
		C122-29.7,119.7-27.3,119.7-24.5z M128.6-24.5c0,2.1-1.7,3.7-3.7,3.7c-2.1,0-3.7-1.7-3.7-3.7c0-2.1,1.7-3.7,3.7-3.7
		C126.9-28.2,128.6-26.5,128.6-24.5z"/>
	<path class="st0" d="M124.2-24.5c0,0.4,0.3,0.7,0.7,0.7c0.4,0,0.7-0.3,0.7-0.7s-0.3-0.7-0.7-0.7C124.5-25.2,124.2-24.9,124.2-24.5z
		"/>
	<path class="st0" d="M149.6-19.3c2.9,0,5.2-2.3,5.2-5.2c0-2.9-2.3-5.2-5.2-5.2c-2.9,0-5.2,2.3-5.2,5.2
		C144.4-21.6,146.7-19.3,149.6-19.3z M149.6-28.2c2.1,0,3.7,1.7,3.7,3.7c0,2.1-1.7,3.7-3.7,3.7c-2.1,0-3.7-1.7-3.7-3.7
		C145.8-26.5,147.5-28.2,149.6-28.2z"/>
	<path class="st0" d="M149.6-23.8c0.4,0,0.7-0.3,0.7-0.7s-0.3-0.7-0.7-0.7c-0.4,0-0.7,0.3-0.7,0.7S149.2-23.8,149.6-23.8z"/>
	<path class="st0" d="M150.3-14.7c0-0.4-0.3-0.7-0.7-0.7H114c-0.4,0-0.7,0.3-0.7,0.7c0,0.4,0.3,0.7,0.7,0.7h35.6
		C150-14,150.3-14.3,150.3-14.7z"/>
	<path class="st0" d="M160.5-10.6h-28c-0.4,0-0.7,0.3-0.7,0.7c0,0.4,0.3,0.7,0.7,0.7h28c0.4,0,0.7-0.3,0.7-0.7
		C161.2-10.2,160.9-10.6,160.5-10.6z"/>
	<path class="st0" d="M142.6-5.6h-22.1c-0.4,0-0.7,0.3-0.7,0.7c0,0.4,0.3,0.7,0.7,0.7h22.1c0.4,0,0.7-0.3,0.7-0.7
		C143.3-5.3,143-5.6,142.6-5.6z"/>
	<path class="st0" d="M122.7-45.6c0.3,0.2,0.8,0.1,1-0.3l2.7-4.7h9.3l2.7,4.7c0.1,0.2,0.4,0.4,0.6,0.4c0.1,0,0.2,0,0.4-0.1
		c0.3-0.2,0.5-0.6,0.3-1l-2.9-5.1c-0.1-0.2-0.4-0.4-0.6-0.4h-10.2c-0.3,0-0.5,0.1-0.6,0.4l-2.9,5.1
		C122.2-46.3,122.3-45.8,122.7-45.6z"/>
	<path class="st0" d="M127.4-48.3c0,0.4,0.3,0.7,0.7,0.7c0.4,0,0.7-0.3,0.7-0.7c0-0.4-0.3-0.7-0.7-0.7
		C127.7-49.1,127.4-48.8,127.4-48.3z"/>
	<path class="st0" d="M128.8-46.9c0,0.4,0.3,0.7,0.7,0.7c0.4,0,0.7-0.3,0.7-0.7s-0.3-0.7-0.7-0.7C129.2-47.6,128.8-47.3,128.8-46.9z
		"/>
	<path class="st0" d="M130.3-48.3c0,0.4,0.3,0.7,0.7,0.7c0.4,0,0.7-0.3,0.7-0.7c0-0.4-0.3-0.7-0.7-0.7
		C130.6-49.1,130.3-48.8,130.3-48.3z"/>
	<path class="st0" d="M131.8-46.9c0,0.4,0.3,0.7,0.7,0.7c0.4,0,0.7-0.3,0.7-0.7s-0.3-0.7-0.7-0.7C132.1-47.6,131.8-47.3,131.8-46.9z
		"/>
	<path class="st0" d="M133.2-48.3c0,0.4,0.3,0.7,0.7,0.7c0.4,0,0.7-0.3,0.7-0.7c0-0.4-0.3-0.7-0.7-0.7
		C133.5-49.1,133.2-48.8,133.2-48.3z"/>
</g>
</svg>
